<svg width="42" height="42" viewBox="0 0 42 42" fill="none" xmlns="http://www.w3.org/2000/svg">
<path d="M25.0075 24.8334L19.25 30.5909L16.9925 28.3334C16.8298 28.1693 16.6362 28.0391 16.423 27.9503C16.2097 27.8615 15.981 27.8157 15.75 27.8157C15.5189 27.8157 15.2902 27.8615 15.0769 27.9503C14.8637 28.0391 14.6701 28.1693 14.5075 28.3334C14.1815 28.6612 13.9986 29.1048 13.9986 29.5671C13.9986 30.0294 14.1815 30.473 14.5075 30.8009L18.0075 34.3009C18.1701 34.4649 18.3637 34.5951 18.5769 34.6839C18.7902 34.7728 19.0189 34.8185 19.25 34.8185C19.481 34.8185 19.7097 34.7728 19.923 34.6839C20.1362 34.5951 20.3298 34.4649 20.4925 34.3009L27.4925 27.3009C27.8184 26.973 28.0013 26.5294 28.0013 26.0671C28.0013 25.6048 27.8184 25.1612 27.4925 24.8334C27.3298 24.6693 27.1362 24.5391 26.923 24.4503C26.7097 24.3615 26.481 24.3157 26.25 24.3157C26.0189 24.3157 25.7902 24.3615 25.5769 24.4503C25.3637 24.5391 25.1701 24.6693 25.0075 24.8334ZM32.235 14.5609C31.1645 12.1035 29.3176 10.0651 26.9775 8.75813C24.6374 7.45116 21.9332 6.94778 19.2795 7.32517C16.6258 7.70257 14.1692 8.9399 12.2862 10.8475C10.4032 12.755 9.19789 15.2275 8.85496 17.8859C7.39545 18.248 6.09135 19.0705 5.13575 20.2316C4.18016 21.3927 3.62388 22.8307 3.54927 24.3326C3.47467 25.8345 3.88571 27.3205 4.72153 28.5706C5.55735 29.8207 6.77352 30.7684 8.18996 31.2734C8.41349 31.3907 8.65975 31.4582 8.91184 31.4714C9.16394 31.4845 9.41589 31.443 9.65043 31.3496C9.88496 31.2562 10.0965 31.1132 10.2706 30.9304C10.4446 30.7476 10.5771 30.5292 10.6588 30.2904C10.7406 30.0516 10.7697 29.7979 10.7441 29.5467C10.7186 29.2956 10.639 29.0529 10.5109 28.8354C10.3828 28.618 10.2091 28.4307 10.0018 28.2867C9.79449 28.1426 9.55848 28.0451 9.30996 28.0009C8.62787 27.7543 8.03922 27.3019 7.6254 26.7063C7.21158 26.1106 6.99303 25.4011 6.99996 24.6759C6.99996 23.7476 7.36871 22.8574 8.02508 22.201C8.68146 21.5446 9.5717 21.1759 10.5 21.1759C10.9641 21.1759 11.4092 20.9915 11.7374 20.6633C12.0656 20.3351 12.25 19.89 12.25 19.4259C12.2585 17.3576 12.9995 15.3592 14.3413 13.7853C15.6832 12.2114 17.5392 11.1637 19.5801 10.8281C21.621 10.4924 23.7148 10.8906 25.49 11.952C27.2652 13.0134 28.607 14.6692 29.2775 16.6259C29.3801 16.9233 29.5611 17.1876 29.8013 17.3909C30.0415 17.5941 30.3321 17.7288 30.6425 17.7809C31.8081 18.0011 32.8647 18.6097 33.6403 19.5073C34.4158 20.4049 34.8644 21.5387 34.9132 22.724C34.9619 23.9092 34.6077 25.076 33.9085 26.0343C33.2092 26.9925 32.2061 27.6857 31.0625 28.0009C30.5983 28.0589 30.1763 28.2989 29.8891 28.6681C29.6019 29.0373 29.4732 29.5055 29.5312 29.9696C29.5892 30.4337 29.8292 30.8558 30.1984 31.143C30.5677 31.4301 31.0358 31.5589 31.5 31.5009H31.9375C33.7791 31.0142 35.4117 29.9398 36.5872 28.4409C37.7627 26.942 38.417 25.1004 38.4507 23.1958C38.4843 21.2912 37.8955 19.4277 36.7737 17.8882C35.6519 16.3487 34.0583 15.2173 32.235 14.6659V14.5609Z" fill="#F8B517"/>
</svg>
