<svg width="42" height="42" viewBox="0 0 42 42" fill="none" xmlns="http://www.w3.org/2000/svg">
<path d="M37.275 17.6401C36.7833 17.0497 36.1679 16.5745 35.4725 16.2479C34.777 15.9213 34.0183 15.7514 33.25 15.7501H25.27L26.25 13.2476C26.6576 12.1519 26.7934 10.9736 26.6456 9.81394C26.4978 8.65424 26.071 7.5477 25.4016 6.58923C24.7322 5.63076 23.8403 4.84897 22.8024 4.31093C21.7645 3.77289 20.6116 3.49465 19.4425 3.50008C19.1059 3.50078 18.7766 3.59856 18.4941 3.78169C18.2117 3.96483 17.988 4.22554 17.85 4.53258L12.8625 15.7501H8.75C7.35761 15.7501 6.02226 16.3032 5.03769 17.2878C4.05312 18.2723 3.5 19.6077 3.5 21.0001V33.2501C3.5 34.6425 4.05312 35.9778 5.03769 36.9624C6.02226 37.947 7.35761 38.5001 8.75 38.5001H31.0275C32.2557 38.4997 33.4448 38.0687 34.3881 37.2821C35.3313 36.4956 35.9689 35.4032 36.19 34.1951L38.4125 21.9451C38.55 21.188 38.5193 20.4099 38.3228 19.666C38.1262 18.9221 37.7685 18.2304 37.275 17.6401ZM12.25 35.0001H8.75C8.28587 35.0001 7.84075 34.8157 7.51256 34.4875C7.18437 34.1593 7 33.7142 7 33.2501V21.0001C7 20.5359 7.18437 20.0908 7.51256 19.7626C7.84075 19.4345 8.28587 19.2501 8.75 19.2501H12.25V35.0001ZM35 21.3151L32.7775 33.5651C32.703 33.9728 32.4861 34.3407 32.1657 34.6035C31.8452 34.8663 31.4419 35.0068 31.0275 35.0001H15.75V17.8676L20.51 7.15758C21 7.30042 21.455 7.54329 21.8464 7.87085C22.2378 8.19841 22.557 8.60355 22.7839 9.06069C23.0109 9.51784 23.1406 10.0171 23.1648 10.5269C23.1891 11.0366 23.1075 11.5459 22.925 12.0226L21.9975 14.5251C21.7999 15.054 21.7331 15.6229 21.803 16.1833C21.8729 16.7436 22.0773 17.2787 22.3988 17.7429C22.7203 18.2071 23.1494 18.5866 23.6493 18.849C24.1493 19.1115 24.7053 19.2491 25.27 19.2501H33.25C33.5071 19.2497 33.7611 19.3059 33.994 19.4148C34.2269 19.5237 34.433 19.6825 34.5975 19.8801C34.7661 20.0749 34.8896 20.3045 34.9591 20.5526C35.0287 20.8006 35.0427 21.061 35 21.3151Z" fill="#F8B517"/>
</svg>
