<svg width="42" height="42" viewBox="0 0 42 42" fill="none" xmlns="http://www.w3.org/2000/svg">
<path d="M5.25 24.5C4.78587 24.5 4.34075 24.6844 4.01256 25.0126C3.68438 25.3408 3.5 25.7859 3.5 26.25C3.5 26.7141 3.68438 27.1592 4.01256 27.4874C4.34075 27.8156 4.78587 28 5.25 28C6.64239 28 7.97775 28.5531 8.96231 29.5377C9.94688 30.5223 10.5 31.8576 10.5 33.25C10.5 33.7141 10.6844 34.1593 11.0126 34.4874C11.3408 34.8156 11.7859 35 12.25 35C12.7141 35 13.1592 34.8156 13.4874 34.4874C13.8156 34.1593 14 33.7141 14 33.25C14 30.9294 13.0781 28.7038 11.4372 27.0628C9.79624 25.4219 7.57064 24.5 5.25 24.5ZM4.0075 32.0075C3.76419 32.2528 3.59895 32.5647 3.53258 32.9037C3.46622 33.2428 3.50171 33.5939 3.63459 33.9129C3.76746 34.2318 3.99177 34.5043 4.27924 34.6959C4.56672 34.8876 4.90449 34.9899 5.25 34.9899C5.59551 34.9899 5.93328 34.8876 6.22076 34.6959C6.50823 34.5043 6.73254 34.2318 6.86541 33.9129C6.99829 33.5939 7.03378 33.2428 6.96742 32.9037C6.90105 32.5647 6.73581 32.2528 6.4925 32.0075C6.32982 31.8435 6.13626 31.7133 5.92301 31.6244C5.70976 31.5356 5.48102 31.4899 5.25 31.4899C5.01898 31.4899 4.79025 31.5356 4.57699 31.6244C4.36374 31.7133 4.17019 31.8435 4.0075 32.0075ZM33.25 7H8.75C7.35761 7 6.02226 7.55312 5.03769 8.53769C4.05312 9.52226 3.5 10.8576 3.5 12.25C3.5 12.7141 3.68438 13.1592 4.01256 13.4874C4.34075 13.8156 4.78587 14 5.25 14C5.71413 14 6.15925 13.8156 6.48744 13.4874C6.81563 13.1592 7 12.7141 7 12.25C7 11.7859 7.18438 11.3408 7.51256 11.0126C7.84075 10.6844 8.28587 10.5 8.75 10.5H33.25C33.7141 10.5 34.1593 10.6844 34.4874 11.0126C34.8156 11.3408 35 11.7859 35 12.25V29.75C35 30.2141 34.8156 30.6593 34.4874 30.9874C34.1593 31.3156 33.7141 31.5 33.25 31.5H26.25C25.7859 31.5 25.3408 31.6844 25.0126 32.0126C24.6844 32.3407 24.5 32.7859 24.5 33.25C24.5 33.7141 24.6844 34.1593 25.0126 34.4874C25.3408 34.8156 25.7859 35 26.25 35H33.25C34.6424 35 35.9777 34.4469 36.9623 33.4623C37.9469 32.4777 38.5 31.1424 38.5 29.75V12.25C38.5 10.8576 37.9469 9.52226 36.9623 8.53769C35.9777 7.55312 34.6424 7 33.25 7ZM5.25 17.5C4.78587 17.5 4.34075 17.6844 4.01256 18.0126C3.68438 18.3408 3.5 18.7859 3.5 19.25C3.5 19.7141 3.68438 20.1592 4.01256 20.4874C4.34075 20.8156 4.78587 21 5.25 21C8.4989 21 11.6147 22.2906 13.9121 24.5879C16.2094 26.8853 17.5 30.0011 17.5 33.25C17.5 33.7141 17.6844 34.1593 18.0126 34.4874C18.3408 34.8156 18.7859 35 19.25 35C19.7141 35 20.1592 34.8156 20.4874 34.4874C20.8156 34.1593 21 33.7141 21 33.25C21 29.0728 19.3406 25.0668 16.3869 22.1131C13.4332 19.1594 9.42716 17.5 5.25 17.5Z" fill="#F8B517"/>
</svg>
