<svg width="42" height="42" viewBox="0 0 42 42" fill="none" xmlns="http://www.w3.org/2000/svg">
<path d="M31.5 17.5C32.8844 17.5 34.2378 17.0895 35.389 16.3203C36.5401 15.5511 37.4373 14.4579 37.9671 13.1788C38.4969 11.8997 38.6356 10.4922 38.3655 9.13437C38.0954 7.7765 37.4287 6.52922 36.4497 5.55026C35.4707 4.57129 34.2235 3.9046 32.8656 3.63451C31.5077 3.36441 30.1003 3.50303 28.8212 4.03285C27.5421 4.56266 26.4489 5.45987 25.6797 6.61101C24.9105 7.76216 24.5 9.11553 24.5 10.5C24.5 12.3565 25.2375 14.137 26.5502 15.4498C27.863 16.7625 29.6435 17.5 31.5 17.5ZM31.5 7C32.1922 7 32.8689 7.20527 33.4445 7.58986C34.02 7.97444 34.4686 8.52107 34.7335 9.16061C34.9985 9.80015 35.0678 10.5039 34.9327 11.1828C34.7977 11.8618 34.4643 12.4854 33.9748 12.9749C33.4854 13.4644 32.8617 13.7977 32.1828 13.9328C31.5039 14.0678 30.8001 13.9985 30.1606 13.7336C29.521 13.4687 28.9744 13.0201 28.5898 12.4445C28.2052 11.8689 28 11.1922 28 10.5C28 9.57175 28.3687 8.68151 29.0251 8.02513C29.6815 7.36875 30.5717 7 31.5 7ZM29.4875 21.8225C29.3305 21.5693 29.1115 21.3603 28.8512 21.2154C28.5909 21.0704 28.2979 20.9944 28 20.9944C27.702 20.9944 27.409 21.0704 27.1487 21.2154C26.8884 21.3603 26.6694 21.5693 26.5125 21.8225L24.7625 24.675L19.005 14.875C18.85 14.6139 18.6298 14.3975 18.3659 14.2473C18.102 14.097 17.8036 14.018 17.5 14.018C17.1963 14.018 16.8979 14.097 16.634 14.2473C16.3702 14.3975 16.1499 14.6139 15.995 14.875L3.74497 35.875C3.59182 36.1403 3.51097 36.4411 3.5105 36.7474C3.51003 37.0537 3.58997 37.3547 3.74232 37.6205C3.89467 37.8862 4.11409 38.1073 4.37866 38.2616C4.64323 38.416 4.94368 38.4982 5.24997 38.5H36.75C37.0627 38.5006 37.3698 38.4175 37.6394 38.2592C37.9091 38.1009 38.1314 37.8732 38.2833 37.5999C38.4351 37.3265 38.5109 37.0175 38.5029 36.7049C38.4948 36.3924 38.4032 36.0877 38.2375 35.8225L29.4875 21.8225ZM18.2875 35H8.29497L17.5 19.25L22.645 28L20.4575 31.5L18.2875 35ZM22.4 35L25.0075 30.8525L26.25 28.9975L28 26.0575L33.6 35H22.4Z" fill="#F8B517"/>
</svg>
