<svg width="43" height="42" viewBox="0 0 43 42" fill="none" xmlns="http://www.w3.org/2000/svg">
<path d="M32.7875 15.0325L34.4179 13.4575C34.7553 13.128 34.9448 12.681 34.9448 12.215C34.9448 11.749 34.7553 11.302 34.4179 10.9725C34.0805 10.643 33.623 10.4578 33.1458 10.4578C32.6687 10.4578 32.2111 10.643 31.8738 10.9725L30.2613 12.565C27.7503 10.6677 24.6656 9.63836 21.491 9.63836C18.3165 9.63836 15.2318 10.6677 12.7208 12.565L11.0904 10.955C10.7507 10.6255 10.2908 10.4413 9.812 10.4429C9.3332 10.4445 8.87468 10.6319 8.5373 10.9638C8.19992 11.2956 8.01133 11.7448 8.01301 12.2124C8.01469 12.6801 8.2065 13.128 8.54626 13.4575L10.1946 15.05C8.22916 17.4957 7.16271 20.5159 7.16667 23.625C7.16082 25.857 7.70142 28.058 8.74338 30.0445C9.78534 32.0309 11.2985 33.7453 13.1566 35.0445C15.0146 36.3438 17.1638 37.1902 19.4249 37.5134C21.686 37.8365 23.9934 37.6269 26.1547 36.9021C28.316 36.1772 30.2685 34.9582 31.8494 33.3465C33.4304 31.7349 34.5939 29.7774 35.243 27.6374C35.892 25.4973 36.0078 23.2367 35.5807 21.044C35.1535 18.8513 34.1959 16.7902 32.7875 15.0325ZM21.5 34.125C19.3739 34.125 17.2955 33.5092 15.5276 32.3554C13.7598 31.2017 12.3819 29.5618 11.5683 27.6432C10.7547 25.7246 10.5418 23.6134 10.9566 21.5766C11.3714 19.5398 12.3952 17.6688 13.8986 16.2004C15.402 14.7319 17.3175 13.7319 19.4028 13.3268C21.4881 12.9216 23.6495 13.1295 25.6139 13.9243C27.5782 14.719 29.2571 16.0648 30.4383 17.7915C31.6195 19.5182 32.25 21.5483 32.25 23.625C32.25 26.4098 31.1174 29.0805 29.1014 31.0496C27.0854 33.0188 24.3511 34.125 21.5 34.125ZM17.9167 7.875H25.0833C25.5585 7.875 26.0142 7.69063 26.3502 7.36244C26.6862 7.03425 26.875 6.58913 26.875 6.125C26.875 5.66087 26.6862 5.21575 26.3502 4.88756C26.0142 4.55937 25.5585 4.375 25.0833 4.375H17.9167C17.4415 4.375 16.9858 4.55937 16.6498 4.88756C16.3138 5.21575 16.125 5.66087 16.125 6.125C16.125 6.58913 16.3138 7.03425 16.6498 7.36244C16.9858 7.69063 17.4415 7.875 17.9167 7.875ZM23.2917 18.375C23.2917 17.9109 23.1029 17.4658 22.7669 17.1376C22.4309 16.8094 21.9752 16.625 21.5 16.625C21.0248 16.625 20.5691 16.8094 20.2331 17.1376C19.8971 17.4658 19.7083 17.9109 19.7083 18.375V21.6825C19.3027 22.0369 19.0167 22.5033 18.8883 23.0199C18.76 23.5366 18.7952 24.0791 18.9894 24.5757C19.1836 25.0724 19.5277 25.4997 19.976 25.8012C20.4243 26.1026 20.9557 26.2641 21.5 26.2641C22.0443 26.2641 22.5758 26.1026 23.0241 25.8012C23.4724 25.4997 23.8164 25.0724 24.0106 24.5757C24.2048 24.0791 24.2401 23.5366 24.1117 23.0199C23.9833 22.5033 23.6974 22.0369 23.2917 21.6825V18.375Z" fill="#F8B517"/>
</svg>
