<svg width="42" height="42" viewBox="0 0 42 42" fill="none" xmlns="http://www.w3.org/2000/svg">
<path d="M21.525 21.385C22.4588 20.5767 23.2077 19.577 23.721 18.4538C24.2343 17.3305 24.5 16.11 24.5 14.875C24.5 12.5544 23.5781 10.3288 21.9372 8.68782C20.2962 7.04687 18.0706 6.125 15.75 6.125C13.4294 6.125 11.2038 7.04687 9.56282 8.68782C7.92187 10.3288 7 12.5544 7 14.875C6.99999 16.11 7.26565 17.3305 7.77897 18.4538C8.29229 19.577 9.04124 20.5767 9.975 21.385C7.52524 22.4943 5.44681 24.2857 3.98822 26.545C2.52962 28.8042 1.75258 31.4358 1.75 34.125C1.75 34.5891 1.93437 35.0343 2.26256 35.3624C2.59075 35.6906 3.03587 35.875 3.5 35.875C3.96413 35.875 4.40925 35.6906 4.73744 35.3624C5.06563 35.0343 5.25 34.5891 5.25 34.125C5.25 31.3402 6.35625 28.6695 8.32538 26.7004C10.2945 24.7312 12.9652 23.625 15.75 23.625C18.5348 23.625 21.2055 24.7312 23.1746 26.7004C25.1438 28.6695 26.25 31.3402 26.25 34.125C26.25 34.5891 26.4344 35.0343 26.7626 35.3624C27.0908 35.6906 27.5359 35.875 28 35.875C28.4641 35.875 28.9093 35.6906 29.2374 35.3624C29.5656 35.0343 29.75 34.5891 29.75 34.125C29.7474 31.4358 28.9704 28.8042 27.5118 26.545C26.0532 24.2857 23.9748 22.4943 21.525 21.385ZM15.75 20.125C14.7116 20.125 13.6966 19.8171 12.8333 19.2402C11.9699 18.6633 11.297 17.8434 10.8996 16.8841C10.5023 15.9248 10.3983 14.8692 10.6009 13.8508C10.8034 12.8324 11.3035 11.8969 12.0377 11.1627C12.7719 10.4285 13.7074 9.92845 14.7258 9.72588C15.7442 9.52331 16.7998 9.62727 17.7591 10.0246C18.7184 10.422 19.5383 11.0949 20.1152 11.9583C20.6921 12.8216 21 13.8366 21 14.875C21 16.2674 20.4469 17.6027 19.4623 18.5873C18.4777 19.5719 17.1424 20.125 15.75 20.125ZM32.795 20.685C33.9149 19.4238 34.6465 17.8658 34.9017 16.1986C35.1568 14.5313 34.9246 12.8259 34.2331 11.2875C33.5416 9.74912 32.4201 8.44339 31.0038 7.52749C29.5875 6.61159 27.9367 6.12455 26.25 6.125C25.7859 6.125 25.3408 6.30937 25.0126 6.63756C24.6844 6.96575 24.5 7.41087 24.5 7.875C24.5 8.33913 24.6844 8.78425 25.0126 9.11244C25.3408 9.44063 25.7859 9.625 26.25 9.625C27.6424 9.625 28.9777 10.1781 29.9623 11.1627C30.9469 12.1473 31.5 13.4826 31.5 14.875C31.4975 15.7942 31.2538 16.6966 30.7931 17.492C30.3324 18.2874 29.671 18.9479 28.875 19.4075C28.6155 19.5572 28.3988 19.7709 28.2456 20.0283C28.0924 20.2857 28.0079 20.5781 28 20.8775C27.9927 21.1746 28.0611 21.4686 28.1989 21.732C28.3367 21.9953 28.5393 22.2191 28.7875 22.3825L29.47 22.8375L29.6975 22.96C31.8069 23.9605 33.5865 25.543 34.8267 27.521C36.0669 29.4991 36.716 31.7904 36.6975 34.125C36.6975 34.5891 36.8819 35.0343 37.2101 35.3624C37.5383 35.6906 37.9834 35.875 38.4475 35.875C38.9116 35.875 39.3567 35.6906 39.6849 35.3624C40.0131 35.0343 40.1975 34.5891 40.1975 34.125C40.2118 31.4395 39.5392 28.7949 38.2436 26.4426C36.9479 24.0903 35.0724 22.1083 32.795 20.685Z" fill="#F8B517"/>
</svg>
